 0
SECTION
 2
HEADER
 9
$ACADVER
 1
AC1009
 0
ENDSEC
 0
SECTION
 2
TABLES
 0
TABLE
 2
LTYPE
 70
1
 0
LTYPE
 2
CONTINUOUS
 70
64
 3
solid line
 72
65
 73
0
 40
0.0
 0
ENDTAB
 0
TABLE
 2
LAYER
 70
6
 0
LAYER
 2
0
 70
0
 62
7
 6
CONTINUOUS
 0
LAYER
 2
WOLF
 70
64
 62
7
 6
CONTINUOUS
 0
ENDTAB
 0
ENDSEC
 0
SECTION
 2
BLOCKS
 0
ENDSEC
 0
SECTION
 2
ENTITIES
 0
POLYLINE
 8
WOLF
 66
1
 10
0.0
 20
0.0
 30
0.0
 70
9
 0
VERTEX
 8
WOLF
 10
0.1371
 20
0.2515
 30
5.4883
 70
32
 0
VERTEX
 8
WOLF
 10
0.149
 20
0.2237
 30
5.4883
 70
32
 0
VERTEX
 8
WOLF
 10
0.1613
 20
0.2013
 30
5.4883
 70
32
 0
VERTEX
 8
WOLF
 10
0.1734
 20
0.1836
 30
5.4883
 70
32
 0
VERTEX
 8
WOLF
 10
0.1847
 20
0.1701
 30
5.4883
 70
32
 0
VERTEX
 8
WOLF
 10
0.1971
 20
0.1577
 30
5.4883
 70
32
 0
VERTEX
 8
WOLF
 10
0.2107
 20
0.1465
 30
5.4883
 70
32
 0
VERTEX
 8
WOLF
 10
0.2256
 20
0.1366
 30
5.4883
 70
32
 0
VERTEX
 8
WOLF
 10
0.2384
 20
0.1296
 30
5.4883
 70
32
 0
VERTEX
 8
WOLF
 10
0.2557
 20
0.1221
 30
5.4883
 70
32
 0
VERTEX
 8
WOLF
 10
1.5608
 20
0.1221
 30
5.4883
 70
32
 0
VERTEX
 8
WOLF
 10
1.2911
 20
0.3378
 30
5.4883
 70
32
 0
VERTEX
 8
WOLF
 10
1.1112
 20
0.4629
 30
5.4883
 70
32
 0
VERTEX
 8
WOLF
 10
1.0856
 20
0.4883
 30
5.4883
 70
32
 0
VERTEX
 8
WOLF
 10
1.0725
 20
0.5043
 30
5.4883
 70
32
 0
VERTEX
 8
WOLF
 10
1.0614
 20
0.521
 30
5.4883
 70
32
 0
VERTEX
 8
WOLF
 10
1.0526
 20
0.5383
 30
5.4883
 70
32
 0
VERTEX
 8
WOLF
 10
1.0481
 20
0.5503
 30
5.4883
 70
32
 0
VERTEX
 8
WOLF
 10
1.0449
 20
0.5625
 30
5.4883
 70
32
 0
VERTEX
 8
WOLF
 10
1.043
 20
0.5751
 30
5.4883
 70
32
 0
VERTEX
 8
WOLF
 10
1.0427
 20
0.5821
 30
5.4883
 70
32
 0
VERTEX
 8
WOLF
 10
1.0433
 20
0.593
 30
5.4883
 70
32
 0
VERTEX
 8
WOLF
 10
1.0451
 20
0.6043
 30
5.4883
 70
32
 0
VERTEX
 8
WOLF
 10
1.0501
 20
0.6238
 30
5.4883
 70
32
 0
VERTEX
 8
WOLF
 10
1.0935
 20
0.7466
 30
5.4883
 70
32
 0
VERTEX
 8
WOLF
 10
1.0963
 20
0.7634
 30
5.4883
 70
32
 0
VERTEX
 8
WOLF
 10
1.0969
 20
0.7718
 30
5.4883
 70
32
 0
VERTEX
 8
WOLF
 10
1.097
 20
0.78
 30
5.4883
 70
32
 0
VERTEX
 8
WOLF
 10
1.0962
 20
0.7909
 30
5.4883
 70
32
 0
VERTEX
 8
WOLF
 10
1.0932
 20
0.8072
 30
5.4883
 70
32
 0
VERTEX
 8
WOLF
 10
1.0884
 20
0.8238
 30
5.4883
 70
32
 0
VERTEX
 8
WOLF
 10
1.0796
 20
0.8459
 30
5.4883
 70
32
 0
VERTEX
 8
WOLF
 10
1.0595
 20
0.885
 30
5.4883
 70
32
 0
VERTEX
 8
WOLF
 10
1.0068
 20
0.9811
 30
5.4883
 70
32
 0
VERTEX
 8
WOLF
 10
0.9978
 20
1.0038
 30
5.4883
 70
32
 0
VERTEX
 8
WOLF
 10
0.9929
 20
1.0208
 30
5.4883
 70
32
 0
VERTEX
 8
WOLF
 10
0.9898
 20
1.0378
 30
5.4883
 70
32
 0
VERTEX
 8
WOLF
 10
0.989
 20
1.0491
 30
5.4883
 70
32
 0
VERTEX
 8
WOLF
 10
0.9891
 20
1.0604
 30
5.4883
 70
32
 0
VERTEX
 8
WOLF
 10
0.9914
 20
1.0769
 30
5.4883
 70
32
 0
VERTEX
 8
WOLF
 10
0.9959
 20
1.0927
 30
5.4883
 70
32
 0
VERTEX
 8
WOLF
 10
1.0024
 20
1.1078
 30
5.4883
 70
32
 0
VERTEX
 8
WOLF
 10
1.0108
 20
1.1224
 30
5.4883
 70
32
 0
VERTEX
 8
WOLF
 10
1.0209
 20
1.1365
 30
5.4883
 70
32
 0
VERTEX
 8
WOLF
 10
1.0386
 20
1.1566
 30
5.4883
 70
32
 0
VERTEX
 8
WOLF
 10
1.0663
 20
1.182
 30
5.4883
 70
32
 0
VERTEX
 8
WOLF
 10
1.1213
 20
1.2229
 30
5.4883
 70
32
 0
VERTEX
 8
WOLF
 10
1.2265
 20
1.2977
 30
5.4883
 70
32
 0
VERTEX
 8
WOLF
 10
1.2432
 20
1.3134
 30
5.4883
 70
32
 0
VERTEX
 8
WOLF
 10
1.2524
 20
1.324
 30
5.4883
 70
32
 0
VERTEX
 8
WOLF
 10
1.2599
 20
1.3348
 30
5.4883
 70
32
 0
VERTEX
 8
WOLF
 10
1.2654
 20
1.3457
 30
5.4883
 70
32
 0
VERTEX
 8
WOLF
 10
1.2673
 20
1.3512
 30
5.4883
 70
32
 0
VERTEX
 8
WOLF
 10
1.2687
 20
1.3568
 30
5.4883
 70
32
 0
VERTEX
 8
WOLF
 10
1.2695
 20
1.3624
 30
5.4883
 70
32
 0
VERTEX
 8
WOLF
 10
1.2697
 20
1.3659
 30
5.4883
 70
32
 0
VERTEX
 8
WOLF
 10
1.2695
 20
1.3694
 30
5.4883
 70
32
 0
VERTEX
 8
WOLF
 10
1.2683
 20
1.3766
 30
5.4883
 70
32
 0
VERTEX
 8
WOLF
 10
1.2658
 20
1.3842
 30
5.4883
 70
32
 0
VERTEX
 8
WOLF
 10
1.2624
 20
1.392
 30
5.4883
 70
32
 0
VERTEX
 8
WOLF
 10
1.2554
 20
1.404
 30
5.4883
 70
32
 0
VERTEX
 8
WOLF
 10
1.2432
 20
1.4207
 30
5.4883
 70
32
 0
VERTEX
 8
WOLF
 10
1.22
 20
1.4464
 30
5.4883
 70
32
 0
VERTEX
 8
WOLF
 10
1.1554
 20
1.5052
 30
5.4883
 70
32
 0
VERTEX
 8
WOLF
 10
1.097
 20
1.5565
 30
5.4883
 70
32
 0
VERTEX
 8
WOLF
 10
0.9272
 20
1.7426
 30
5.4883
 70
32
 0
VERTEX
 8
WOLF
 10
0.7707
 20
1.9513
 30
5.4883
 70
32
 0
VERTEX
 8
WOLF
 10
0.6503
 20
2.148
 30
5.4883
 70
32
 0
VERTEX
 8
WOLF
 10
0.5458
 20
2.3613
 30
5.4883
 70
32
 0
VERTEX
 8
WOLF
 10
0.4598
 20
2.5911
 30
5.4883
 70
32
 0
VERTEX
 8
WOLF
 10
0.3953
 20
2.8374
 30
5.4883
 70
32
 0
VERTEX
 8
WOLF
 10
0.36
 20
3.0552
 30
5.4883
 70
32
 0
VERTEX
 8
WOLF
 10
0.3476
 20
3.1914
 30
5.4883
 70
32
 0
VERTEX
 8
WOLF
 10
0.342
 20
3.3793
 30
5.4883
 70
32
 0
VERTEX
 8
WOLF
 10
0.3539
 20
3.6163
 30
5.4883
 70
32
 0
VERTEX
 8
WOLF
 10
0.3863
 20
3.8417
 30
5.4883
 70
32
 0
VERTEX
 8
WOLF
 10
0.4371
 20
4.0556
 30
5.4883
 70
32
 0
VERTEX
 8
WOLF
 10
0.5198
 20
4.2971
 30
5.4883
 70
32
 0
VERTEX
 8
WOLF
 10
0.6231
 20
4.5223
 30
5.4883
 70
32
 0
VERTEX
 8
WOLF
 10
0.7437
 20
4.731
 30
5.4883
 70
32
 0
VERTEX
 8
WOLF
 10
0.902
 20
4.954
 30
5.4883
 70
32
 0
VERTEX
 8
WOLF
 10
1.0238
 20
5.0998
 30
5.4883
 70
32
 0
VERTEX
 8
WOLF
 10
1.1509
 20
5.2344
 30
5.4883
 70
32
 0
VERTEX
 8
WOLF
 10
1.3506
 20
5.4149
 30
5.4883
 70
32
 0
VERTEX
 8
WOLF
 10
1.5727
 20
5.5784
 30
5.4883
 70
32
 0
VERTEX
 8
WOLF
 10
1.8158
 20
5.722
 30
5.4883
 70
32
 0
VERTEX
 8
WOLF
 10
2.0399
 20
5.8272
 30
5.4883
 70
32
 0
VERTEX
 8
WOLF
 10
2.2775
 20
5.9139
 30
5.4883
 70
32
 0
VERTEX
 8
WOLF
 10
2.5278
 20
5.9803
 30
5.4883
 70
32
 0
VERTEX
 8
WOLF
 10
2.7455
 20
6.0188
 30
5.4883
 70
32
 0
VERTEX
 8
WOLF
 10
3.0168
 20
6.0434
 30
5.4883
 70
32
 0
VERTEX
 8
WOLF
 10
3.3568
 20
6.0429
 30
5.4883
 70
32
 0
VERTEX
 8
WOLF
 10
3.6735
 20
6.0122
 30
5.4883
 70
32
 0
VERTEX
 8
WOLF
 10
3.9677
 20
5.9538
 30
5.4883
 70
32
 0
VERTEX
 8
WOLF
 10
4.2404
 20
5.8701
 30
5.4883
 70
32
 0
VERTEX
 8
WOLF
 10
4.4924
 20
5.7638
 30
5.4883
 70
32
 0
VERTEX
 8
WOLF
 10
4.7248
 20
5.6372
 30
5.4883
 70
32
 0
VERTEX
 8
WOLF
 10
4.9384
 20
5.493
 30
5.4883
 70
32
 0
VERTEX
 8
WOLF
 10
5.0708
 20
5.3883
 30
5.4883
 70
32
 0
VERTEX
 8
WOLF
 10
5.1955
 20
5.2776
 30
5.4883
 70
32
 0
VERTEX
 8
WOLF
 10
5.3969
 20
5.0715
 30
5.4883
 70
32
 0
VERTEX
 8
WOLF
 10
5.5613
 20
4.8702
 30
5.4883
 70
32
 0
VERTEX
 8
WOLF
 10
5.7096
 20
4.6487
 30
5.4883
 70
32
 0
VERTEX
 8
WOLF
 10
5.8204
 20
4.4425
 30
5.4883
 70
32
 0
VERTEX
 8
WOLF
 10
5.9129
 20
4.2209
 30
5.4883
 70
32
 0
VERTEX
 8
WOLF
 10
5.9739
 20
4.0242
 30
5.4883
 70
32
 0
VERTEX
 8
WOLF
 10
6.0184
 20
3.8163
 30
5.4883
 70
32
 0
VERTEX
 8
WOLF
 10
6.0364
 20
3.6861
 30
5.4883
 70
32
 0
VERTEX
 8
WOLF
 10
6.0476
 20
3.5519
 30
5.4883
 70
32
 0
VERTEX
 8
WOLF
 10
6.0508
 20
3.2828
 30
5.4883
 70
32
 0
VERTEX
 8
WOLF
 10
6.031
 20
3.0316
 30
5.4883
 70
32
 0
VERTEX
 8
WOLF
 10
5.9905
 20
2.7976
 30
5.4883
 70
32
 0
VERTEX
 8
WOLF
 10
5.9316
 20
2.58
 30
5.4883
 70
32
 0
VERTEX
 8
WOLF
 10
5.8566
 20
2.3777
 30
5.4883
 70
32
 0
VERTEX
 8
WOLF
 10
5.7517
 20
2.1603
 30
5.4883
 70
32
 0
VERTEX
 8
WOLF
 10
5.6495
 20
1.9887
 30
5.4883
 70
32
 0
VERTEX
 8
WOLF
 10
5.5191
 20
1.8046
 30
5.4883
 70
32
 0
VERTEX
 8
WOLF
 10
5.4962
 20
1.7781
 30
5.4883
 70
32
 0
VERTEX
 8
WOLF
 10
5.3018
 20
1.5716
 30
5.4883
 70
32
 0
VERTEX
 8
WOLF
 10
5.2736
 20
1.5309
 30
5.4883
 70
32
 0
VERTEX
 8
WOLF
 10
5.2609
 20
1.5074
 30
5.4883
 70
32
 0
VERTEX
 8
WOLF
 10
5.2545
 20
1.4923
 30
5.4883
 70
32
 0
VERTEX
 8
WOLF
 10
5.25
 20
1.4777
 30
5.4883
 70
32
 0
VERTEX
 8
WOLF
 10
5.2476
 20
1.4637
 30
5.4883
 70
32
 0
VERTEX
 8
WOLF
 10
5.2473
 20
1.4504
 30
5.4883
 70
32
 0
VERTEX
 8
WOLF
 10
5.2481
 20
1.4441
 30
5.4883
 70
32
 0
VERTEX
 8
WOLF
 10
5.2494
 20
1.4379
 30
5.4883
 70
32
 0
VERTEX
 8
WOLF
 10
5.2508
 20
1.4339
 30
5.4883
 70
32
 0
VERTEX
 8
WOLF
 10
5.2525
 20
1.43
 30
5.4883
 70
32
 0
VERTEX
 8
WOLF
 10
5.2571
 20
1.4225
 30
5.4883
 70
32
 0
VERTEX
 8
WOLF
 10
5.2631
 20
1.4153
 30
5.4883
 70
32
 0
VERTEX
 8
WOLF
 10
5.2705
 20
1.4085
 30
5.4883
 70
32
 0
VERTEX
 8
WOLF
 10
5.2791
 20
1.4019
 30
5.4883
 70
32
 0
VERTEX
 8
WOLF
 10
5.2941
 20
1.3928
 30
5.4883
 70
32
 0
VERTEX
 8
WOLF
 10
5.3172
 20
1.3815
 30
5.4883
 70
32
 0
VERTEX
 8
WOLF
 10
5.4307
 20
1.3461
 30
5.4883
 70
32
 0
VERTEX
 8
WOLF
 10
5.5407
 20
1.3193
 30
5.4883
 70
32
 0
VERTEX
 8
WOLF
 10
5.7428
 20
1.2595
 30
5.4883
 70
32
 0
VERTEX
 8
WOLF
 10
5.7813
 20
1.2424
 30
5.4883
 70
32
 0
VERTEX
 8
WOLF
 10
5.8065
 20
1.2281
 30
5.4883
 70
32
 0
VERTEX
 8
WOLF
 10
5.8252
 20
1.2151
 30
5.4883
 70
32
 0
VERTEX
 8
WOLF
 10
5.8426
 20
1.2006
 30
5.4883
 70
32
 0
VERTEX
 8
WOLF
 10
5.6992
 20
1.2114
 30
5.4883
 70
32
 0
VERTEX
 8
WOLF
 10
5.5437
 20
1.2384
 30
5.4883
 70
32
 0
VERTEX
 8
WOLF
 10
5.1843
 20
1.3536
 30
5.4883
 70
32
 0
VERTEX
 8
WOLF
 10
4.8288
 20
1.4918
 30
5.4883
 70
32
 0
VERTEX
 8
WOLF
 10
4.783
 20
1.505
 30
5.4883
 70
32
 0
VERTEX
 8
WOLF
 10
4.708
 20
1.5224
 30
5.4883
 70
32
 0
VERTEX
 8
WOLF
 10
4.6347
 20
1.5458
 30
5.4883
 70
32
 0
VERTEX
 8
WOLF
 10
4.4505
 20
1.6277
 30
5.4883
 70
32
 0
VERTEX
 8
WOLF
 10
4.4132
 20
1.638
 30
5.4883
 70
32
 0
VERTEX
 8
WOLF
 10
4.3738
 20
1.6448
 30
5.4883
 70
32
 0
VERTEX
 8
WOLF
 10
4.3404
 20
1.6474
 30
5.4883
 70
32
 0
VERTEX
 8
WOLF
 10
4.3052
 20
1.6468
 30
5.4883
 70
32
 0
VERTEX
 8
WOLF
 10
4.2679
 20
1.6428
 30
5.4883
 70
32
 0
VERTEX
 8
WOLF
 10
4.2473
 20
1.6647
 30
5.4883
 70
32
 0
VERTEX
 8
WOLF
 10
4.2315
 20
1.6783
 30
5.4883
 70
32
 0
VERTEX
 8
WOLF
 10
4.2153
 20
1.6898
 30
5.4883
 70
32
 0
VERTEX
 8
WOLF
 10
4.1986
 20
1.6994
 30
5.4883
 70
32
 0
VERTEX
 8
WOLF
 10
4.1815
 20
1.7073
 30
5.4883
 70
32
 0
VERTEX
 8
WOLF
 10
4.1578
 20
1.7155
 30
5.4883
 70
32
 0
VERTEX
 8
WOLF
 10
4.1265
 20
1.7226
 30
5.4883
 70
32
 0
VERTEX
 8
WOLF
 10
4.0425
 20
1.7314
 30
5.4883
 70
32
 0
VERTEX
 8
WOLF
 10
3.9336
 20
1.7399
 30
5.4883
 70
32
 0
VERTEX
 8
WOLF
 10
3.8899
 20
1.7468
 30
5.4883
 70
32
 0
VERTEX
 8
WOLF
 10
3.8385
 20
1.7597
 30
5.4883
 70
32
 0
VERTEX
 8
WOLF
 10
3.7714
 20
1.7833
 30
5.4883
 70
32
 0
VERTEX
 8
WOLF
 10
3.6494
 20
1.8394
 30
5.4883
 70
32
 0
VERTEX
 8
WOLF
 10
3.5237
 20
1.9017
 30
5.4883
 70
32
 0
VERTEX
 8
WOLF
 10
3.4482
 20
1.9325
 30
5.4883
 70
32
 0
VERTEX
 8
WOLF
 10
3.3189
 20
1.972
 30
5.4883
 70
32
 0
VERTEX
 8
WOLF
 10
2.8543
 20
2.0905
 30
5.4883
 70
32
 0
VERTEX
 8
WOLF
 10
2.7948
 20
2.1144
 30
5.4883
 70
32
 0
VERTEX
 8
WOLF
 10
2.7256
 20
2.1498
 30
5.4883
 70
32
 0
VERTEX
 8
WOLF
 10
2.7286
 20
2.654
 30
5.4883
 70
32
 0
VERTEX
 8
WOLF
 10
2.7353
 20
2.7155
 30
5.4883
 70
32
 0
VERTEX
 8
WOLF
 10
2.7472
 20
2.7861
 30
5.4883
 70
32
 0
VERTEX
 8
WOLF
 10
2.7501
 20
2.7856
 30
5.4883
 70
32
 0
VERTEX
 8
WOLF
 10
2.7528
 20
2.7848
 30
5.4883
 70
32
 0
VERTEX
 8
WOLF
 10
2.7552
 20
2.7838
 30
5.4883
 70
32
 0
VERTEX
 8
WOLF
 10
2.7575
 20
2.7826
 30
5.4883
 70
32
 0
VERTEX
 8
WOLF
 10
2.7596
 20
2.7812
 30
5.4883
 70
32
 0
VERTEX
 8
WOLF
 10
2.7615
 20
2.7797
 30
5.4883
 70
32
 0
VERTEX
 8
WOLF
 10
2.7641
 20
2.7771
 30
5.4883
 70
32
 0
VERTEX
 8
WOLF
 10
2.7664
 20
2.7743
 30
5.4883
 70
32
 0
VERTEX
 8
WOLF
 10
2.7698
 20
2.7691
 30
5.4883
 70
32
 0
VERTEX
 8
WOLF
 10
2.7802
 20
2.7518
 30
5.4883
 70
32
 0
VERTEX
 8
WOLF
 10
2.7826
 20
2.749
 30
5.4883
 70
32
 0
VERTEX
 8
WOLF
 10
2.7852
 20
2.7464
 30
5.4883
 70
32
 0
VERTEX
 8
WOLF
 10
2.7871
 20
2.7449
 30
5.4883
 70
32
 0
VERTEX
 8
WOLF
 10
2.7881
 20
2.7442
 30
5.4883
 70
32
 0
VERTEX
 8
WOLF
 10
2.7903
 20
2.743
 30
5.4883
 70
32
 0
VERTEX
 8
WOLF
 10
2.7811
 20
2.8051
 30
5.4883
 70
32
 0
VERTEX
 8
WOLF
 10
2.78
 20
2.8326
 30
5.4883
 70
32
 0
VERTEX
 8
WOLF
 10
2.7809
 20
2.8501
 30
5.4883
 70
32
 0
VERTEX
 8
WOLF
 10
2.7828
 20
2.8625
 30
5.4883
 70
32
 0
VERTEX
 8
WOLF
 10
2.7857
 20
2.874
 30
5.4883
 70
32
 0
VERTEX
 8
WOLF
 10
2.7884
 20
2.8811
 30
5.4883
 70
32
 0
VERTEX
 8
WOLF
 10
2.7917
 20
2.8878
 30
5.4883
 70
32
 0
VERTEX
 8
WOLF
 10
2.7956
 20
2.8938
 30
5.4883
 70
32
 0
VERTEX
 8
WOLF
 10
2.8002
 20
2.8992
 30
5.4883
 70
32
 0
VERTEX
 8
WOLF
 10
2.8055
 20
2.9039
 30
5.4883
 70
32
 0
VERTEX
 8
WOLF
 10
2.8116
 20
2.908
 30
5.4883
 70
32
 0
VERTEX
 8
WOLF
 10
2.8184
 20
2.9112
 30
5.4883
 70
32
 0
VERTEX
 8
WOLF
 10
2.8261
 20
2.9135
 30
5.4883
 70
32
 0
VERTEX
 8
WOLF
 10
2.8347
 20
2.915
 30
5.4883
 70
32
 0
VERTEX
 8
WOLF
 10
2.8442
 20
2.9155
 30
5.4883
 70
32
 0
VERTEX
 8
WOLF
 10
2.8601
 20
2.8955
 30
5.4883
 70
32
 0
VERTEX
 8
WOLF
 10
2.874
 20
2.8733
 30
5.4883
 70
32
 0
VERTEX
 8
WOLF
 10
2.8862
 20
2.849
 30
5.4883
 70
32
 0
VERTEX
 8
WOLF
 10
2.9013
 20
2.8091
 30
5.4883
 70
32
 0
VERTEX
 8
WOLF
 10
2.9131
 20
2.7654
 30
5.4883
 70
32
 0
VERTEX
 8
WOLF
 10
2.9241
 20
2.7022
 30
5.4883
 70
32
 0
VERTEX
 8
WOLF
 10
2.9304
 20
2.3957
 30
5.4883
 70
32
 0
VERTEX
 8
WOLF
 10
2.9197
 20
2.0958
 30
5.4883
 70
32
 0
VERTEX
 8
WOLF
 10
3.06
 20
2.0527
 30
5.4883
 70
32
 0
VERTEX
 8
WOLF
 10
3.0578
 20
2.0781
 30
5.4883
 70
32
 0
VERTEX
 8
WOLF
 10
3.0582
 20
2.0952
 30
5.4883
 70
32
 0
VERTEX
 8
WOLF
 10
3.0602
 20
2.1107
 30
5.4883
 70
32
 0
VERTEX
 8
WOLF
 10
3.0637
 20
2.1246
 30
5.4883
 70
32
 0
VERTEX
 8
WOLF
 10
3.0686
 20
2.1373
 30
5.4883
 70
32
 0
VERTEX
 8
WOLF
 10
3.0746
 20
2.1487
 30
5.4883
 70
32
 0
VERTEX
 8
WOLF
 10
3.0818
 20
2.159
 30
5.4883
 70
32
 0
VERTEX
 8
WOLF
 10
3.0899
 20
2.1683
 30
5.4883
 70
32
 0
VERTEX
 8
WOLF
 10
3.0989
 20
2.1768
 30
5.4883
 70
32
 0
VERTEX
 8
WOLF
 10
3.112
 20
2.187
 30
5.4883
 70
32
 0
VERTEX
 8
WOLF
 10
3.1445
 20
2.2069
 30
5.4883
 70
32
 0
VERTEX
 8
WOLF
 10
3.1786
 20
2.2253
 30
5.4883
 70
32
 0
VERTEX
 8
WOLF
 10
3.1552
 20
2.5628
 30
5.4883
 70
32
 0
VERTEX
 8
WOLF
 10
3.1596
 20
2.6913
 30
5.4883
 70
32
 0
VERTEX
 8
WOLF
 10
3.1703
 20
2.7707
 30
5.4883
 70
32
 0
VERTEX
 8
WOLF
 10
3.1816
 20
2.8194
 30
5.4883
 70
32
 0
VERTEX
 8
WOLF
 10
3.1926
 20
2.8532
 30
5.4883
 70
32
 0
VERTEX
 8
WOLF
 10
3.211
 20
2.894
 30
5.4883
 70
32
 0
VERTEX
 8
WOLF
 10
3.2168
 20
2.8926
 30
5.4883
 70
32
 0
VERTEX
 8
WOLF
 10
3.225
 20
2.8898
 30
5.4883
 70
32
 0
VERTEX
 8
WOLF
 10
3.2806
 20
2.8666
 30
5.4883
 70
32
 0
VERTEX
 8
WOLF
 10
3.2875
 20
2.865
 30
5.4883
 70
32
 0
VERTEX
 8
WOLF
 10
3.2941
 20
2.8642
 30
5.4883
 70
32
 0
VERTEX
 8
WOLF
 10
3.2983
 20
2.8641
 30
5.4883
 70
32
 0
VERTEX
 8
WOLF
 10
3.3024
 20
2.8644
 30
5.4883
 70
32
 0
VERTEX
 8
WOLF
 10
3.3064
 20
2.8652
 30
5.4883
 70
32
 0
VERTEX
 8
WOLF
 10
3.3102
 20
2.8666
 30
5.4883
 70
32
 0
VERTEX
 8
WOLF
 10
3.3138
 20
2.8684
 30
5.4883
 70
32
 0
VERTEX
 8
WOLF
 10
3.3155
 20
2.8696
 30
5.4883
 70
32
 0
VERTEX
 8
WOLF
 10
3.3188
 20
2.8724
 30
5.4883
 70
32
 0
VERTEX
 8
WOLF
 10
3.3159
 20
2.8736
 30
5.4883
 70
32
 0
VERTEX
 8
WOLF
 10
3.3128
 20
2.8753
 30
5.4883
 70
32
 0
VERTEX
 8
WOLF
 10
3.3082
 20
2.8785
 30
5.4883
 70
32
 0
VERTEX
 8
WOLF
 10
3.302
 20
2.8838
 30
5.4883
 70
32
 0
VERTEX
 8
WOLF
 10
3.2959
 20
2.8901
 30
5.4883
 70
32
 0
VERTEX
 8
WOLF
 10
3.2887
 20
2.8991
 30
5.4883
 70
32
 0
VERTEX
 8
WOLF
 10
3.2824
 20
2.9087
 30
5.4883
 70
32
 0
VERTEX
 8
WOLF
 10
3.2772
 20
2.9184
 30
5.4883
 70
32
 0
VERTEX
 8
WOLF
 10
3.2742
 20
2.9259
 30
5.4883
 70
32
 0
VERTEX
 8
WOLF
 10
3.2727
 20
2.9312
 30
5.4883
 70
32
 0
VERTEX
 8
WOLF
 10
3.2721
 20
2.9345
 30
5.4883
 70
32
 0
VERTEX
 8
WOLF
 10
3.2719
 20
2.9376
 30
5.4883
 70
32
 0
VERTEX
 8
WOLF
 10
3.272
 20
2.9404
 30
5.4883
 70
32
 0
VERTEX
 8
WOLF
 10
3.2725
 20
2.943
 30
5.4883
 70
32
 0
VERTEX
 8
WOLF
 10
3.2729
 20
2.9441
 30
5.4883
 70
32
 0
VERTEX
 8
WOLF
 10
3.2734
 20
2.9452
 30
5.4883
 70
32
 0
VERTEX
 8
WOLF
 10
3.2741
 20
2.9462
 30
5.4883
 70
32
 0
VERTEX
 8
WOLF
 10
3.2748
 20
2.9471
 30
5.4883
 70
32
 0
VERTEX
 8
WOLF
 10
3.2757
 20
2.9479
 30
5.4883
 70
32
 0
VERTEX
 8
WOLF
 10
3.3129
 20
2.9354
 30
5.4883
 70
32
 0
VERTEX
 8
WOLF
 10
3.3237
 20
2.9331
 30
5.4883
 70
32
 0
VERTEX
 8
WOLF
 10
3.3289
 20
2.9326
 30
5.4883
 70
32
 0
VERTEX
 8
WOLF
 10
3.3319
 20
2.9327
 30
5.4883
 70
32
 0
VERTEX
 8
WOLF
 10
3.3345
 20
2.9331
 30
5.4883
 70
32
 0
VERTEX
 8
WOLF
 10
3.3368
 20
2.9338
 30
5.4883
 70
32
 0
VERTEX
 8
WOLF
 10
3.3378
 20
2.9343
 30
5.4883
 70
32
 0
VERTEX
 8
WOLF
 10
3.3387
 20
2.9348
 30
5.4883
 70
32
 0
VERTEX
 8
WOLF
 10
3.3395
 20
2.9355
 30
5.4883
 70
32
 0
VERTEX
 8
WOLF
 10
3.3403
 20
2.9362
 30
5.4883
 70
32
 0
VERTEX
 8
WOLF
 10
3.3409
 20
2.937
 30
5.4883
 70
32
 0
VERTEX
 8
WOLF
 10
3.3415
 20
2.9379
 30
5.4883
 70
32
 0
VERTEX
 8
WOLF
 10
3.342
 20
2.9389
 30
5.4883
 70
32
 0
VERTEX
 8
WOLF
 10
3.3425
 20
2.94
 30
5.4883
 70
32
 0
VERTEX
 8
WOLF
 10
3.3431
 20
2.9424
 30
5.4883
 70
32
 0
VERTEX
 8
WOLF
 10
3.3435
 20
2.9451
 30
5.4883
 70
32
 0
VERTEX
 8
WOLF
 10
3.3436
 20
2.9482
 30
5.4883
 70
32
 0
VERTEX
 8
WOLF
 10
3.3432
 20
2.9536
 30
5.4883
 70
32
 0
VERTEX
 8
WOLF
 10
3.3423
 20
2.9598
 30
5.4883
 70
32
 0
VERTEX
 8
WOLF
 10
3.3404
 20
2.9695
 30
5.4883
 70
32
 0
VERTEX
 8
WOLF
 10
3.3722
 20
2.9709
 30
5.4883
 70
32
 0
VERTEX
 8
WOLF
 10
3.4012
 20
2.9694
 30
5.4883
 70
32
 0
VERTEX
 8
WOLF
 10
3.4276
 20
2.9653
 30
5.4883
 70
32
 0
VERTEX
 8
WOLF
 10
3.4516
 20
2.9585
 30
5.4883
 70
32
 0
VERTEX
 8
WOLF
 10
3.4733
 20
2.9494
 30
5.4883
 70
32
 0
VERTEX
 8
WOLF
 10
3.4929
 20
2.938
 30
5.4883
 70
32
 0
VERTEX
 8
WOLF
 10
3.5104
 20
2.9245
 30
5.4883
 70
32
 0
VERTEX
 8
WOLF
 10
3.5262
 20
2.9091
 30
5.4883
 70
32
 0
VERTEX
 8
WOLF
 10
3.5403
 20
2.8919
 30
5.4883
 70
32
 0
VERTEX
 8
WOLF
 10
3.5529
 20
2.8731
 30
5.4883
 70
32
 0
VERTEX
 8
WOLF
 10
3.5693
 20
2.8422
 30
5.4883
 70
32
 0
VERTEX
 8
WOLF
 10
3.5872
 20
2.7969
 30
5.4883
 70
32
 0
VERTEX
 8
WOLF
 10
3.6083
 20
2.7226
 30
5.4883
 70
32
 0
VERTEX
 8
WOLF
 10
3.632
 20
2.6183
 30
5.4883
 70
32
 0
VERTEX
 8
WOLF
 10
3.664
 20
2.5057
 30
5.4883
 70
32
 0
VERTEX
 8
WOLF
 10
3.6902
 20
2.4433
 30
5.4883
 70
32
 0
VERTEX
 8
WOLF
 10
3.7205
 20
2.3862
 30
5.4883
 70
32
 0
VERTEX
 8
WOLF
 10
3.7548
 20
2.3339
 30
5.4883
 70
32
 0
VERTEX
 8
WOLF
 10
3.8007
 20
2.2769
 30
5.4883
 70
32
 0
VERTEX
 8
WOLF
 10
3.8515
 20
2.2253
 30
5.4883
 70
32
 0
VERTEX
 8
WOLF
 10
3.9164
 20
2.1709
 30
5.4883
 70
32
 0
VERTEX
 8
WOLF
 10
3.9974
 20
2.1149
 30
5.4883
 70
32
 0
VERTEX
 8
WOLF
 10
4.0846
 20
2.0635
 30
5.4883
 70
32
 0
VERTEX
 8
WOLF
 10
4.0949
 20
1.8875
 30
5.4883
 70
32
 0
VERTEX
 8
WOLF
 10
4.0924
 20
1.8292
 30
5.4883
 70
32
 0
VERTEX
 8
WOLF
 10
4.0846
 20
1.7723
 30
5.4883
 70
32
 0
VERTEX
 8
WOLF
 10
4.0916
 20
1.7711
 30
5.4883
 70
32
 0
VERTEX
 8
WOLF
 10
4.0987
 20
1.7692
 30
5.4883
 70
32
 0
VERTEX
 8
WOLF
 10
4.1096
 20
1.7652
 30
5.4883
 70
32
 0
VERTEX
 8
WOLF
 10
4.1246
 20
1.7579
 30
5.4883
 70
32
 0
VERTEX
 8
WOLF
 10
4.1586
 20
1.737
 30
5.4883
 70
32
 0
VERTEX
 8
WOLF
 10
4.2043
 20
1.7083
 30
5.4883
 70
32
 0
VERTEX
 8
WOLF
 10
4.2136
 20
1.704
 30
5.4883
 70
32
 0
VERTEX
 8
WOLF
 10
4.2194
 20
1.7019
 30
5.4883
 70
32
 0
VERTEX
 8
WOLF
 10
4.2249
 20
1.7005
 30
5.4883
 70
32
 0
VERTEX
 8
WOLF
 10
4.23
 20
1.7
 30
5.4883
 70
32
 0
VERTEX
 8
WOLF
 10
4.2324
 20
1.7
 30
5.4883
 70
32
 0
VERTEX
 8
WOLF
 10
4.2348
 20
1.7003
 30
5.4883
 70
32
 0
VERTEX
 8
WOLF
 10
4.237
 20
1.7009
 30
5.4883
 70
32
 0
VERTEX
 8
WOLF
 10
4.2391
 20
1.7016
 30
5.4883
 70
32
 0
VERTEX
 8
WOLF
 10
4.2411
 20
1.7027
 30
5.4883
 70
32
 0
VERTEX
 8
WOLF
 10
4.243
 20
1.704
 30
5.4883
 70
32
 0
VERTEX
 8
WOLF
 10
4.2447
 20
1.7056
 30
5.4883
 70
32
 0
VERTEX
 8
WOLF
 10
4.2464
 20
1.7075
 30
5.4883
 70
32
 0
VERTEX
 8
WOLF
 10
4.2493
 20
1.7974
 30
5.4883
 70
32
 0
VERTEX
 8
WOLF
 10
4.2594
 20
1.8801
 30
5.4883
 70
32
 0
VERTEX
 8
WOLF
 10
4.2775
 20
1.964
 30
5.4883
 70
32
 0
VERTEX
 8
WOLF
 10
4.2968
 20
2.0282
 30
5.4883
 70
32
 0
VERTEX
 8
WOLF
 10
4.3219
 20
2.0958
 30
5.4883
 70
32
 0
VERTEX
 8
WOLF
 10
4.3146
 20
2.1125
 30
5.4883
 70
32
 0
VERTEX
 8
WOLF
 10
4.3061
 20
2.1279
 30
5.4883
 70
32
 0
VERTEX
 8
WOLF
 10
4.2931
 20
2.1469
 30
5.4883
 70
32
 0
VERTEX
 8
WOLF
 10
4.2182
 20
2.2395
 30
5.4883
 70
32
 0
VERTEX
 8
WOLF
 10
4.2096
 20
2.255
 30
5.4883
 70
32
 0
VERTEX
 8
WOLF
 10
4.2024
 20
2.2717
 30
5.4883
 70
32
 0
VERTEX
 8
WOLF
 10
4.1968
 20
2.29
 30
5.4883
 70
32
 0
VERTEX
 8
WOLF
 10
4.193
 20
2.3101
 30
5.4883
 70
32
 0
VERTEX
 8
WOLF
 10
4.1912
 20
2.3323
 30
5.4883
 70
32
 0
VERTEX
 8
WOLF
 10
4.1913
 20
2.3483
 30
5.4883
 70
32
 0
VERTEX
 8
WOLF
 10
4.1924
 20
2.3655
 30
5.4883
 70
32
 0
VERTEX
 8
WOLF
 10
4.2028
 20
2.3758
 30
5.4883
 70
32
 0
VERTEX
 8
WOLF
 10
4.2141
 20
2.3838
 30
5.4883
 70
32
 0
VERTEX
 8
WOLF
 10
4.2264
 20
2.3896
 30
5.4883
 70
32
 0
VERTEX
 8
WOLF
 10
4.2395
 20
2.3934
 30
5.4883
 70
32
 0
VERTEX
 8
WOLF
 10
4.2534
 20
2.3953
 30
5.4883
 70
32
 0
VERTEX
 8
WOLF
 10
4.2678
 20
2.3954
 30
5.4883
 70
32
 0
VERTEX
 8
WOLF
 10
4.2828
 20
2.3938
 30
5.4883
 70
32
 0
VERTEX
 8
WOLF
 10
4.306
 20
2.3888
 30
5.4883
 70
32
 0
VERTEX
 8
WOLF
 10
4.3299
 20
2.3809
 30
5.4883
 70
32
 0
VERTEX
 8
WOLF
 10
4.362
 20
2.3666
 30
5.4883
 70
32
 0
VERTEX
 8
WOLF
 10
4.4016
 20
2.3445
 30
5.4883
 70
32
 0
VERTEX
 8
WOLF
 10
4.4532
 20
2.3094
 30
5.4883
 70
32
 0
VERTEX
 8
WOLF
 10
4.4963
 20
2.2749
 30
5.4883
 70
32
 0
VERTEX
 8
WOLF
 10
4.5268
 20
2.2468
 30
5.4883
 70
32
 0
VERTEX
 8
WOLF
 10
4.5641
 20
2.2051
 30
5.4883
 70
32
 0
VERTEX
 8
WOLF
 10
4.6076
 20
2.1448
 30
5.4883
 70
32
 0
VERTEX
 8
WOLF
 10
4.6554
 20
2.0628
 30
5.4883
 70
32
 0
VERTEX
 8
WOLF
 10
4.7113
 20
1.9418
 30
5.4883
 70
32
 0
VERTEX
 8
WOLF
 10
4.768
 20
1.7818
 30
5.4883
 70
32
 0
VERTEX
 8
WOLF
 10
4.8023
 20
1.6554
 30
5.4883
 70
32
 0
VERTEX
 8
WOLF
 10
4.8288
 20
1.5242
 30
5.4883
 70
32
 0
VERTEX
 8
WOLF
 10
4.8421
 20
1.5133
 30
5.4883
 70
32
 0
VERTEX
 8
WOLF
 10
4.8567
 20
1.5037
 30
5.4883
 70
32
 0
VERTEX
 8
WOLF
 10
4.8804
 20
1.4912
 30
5.4883
 70
32
 0
VERTEX
 8
WOLF
 10
4.9276
 20
1.472
 30
5.4883
 70
32
 0
VERTEX
 8
WOLF
 10
4.9806
 20
1.4525
 30
5.4883
 70
32
 0
VERTEX
 8
WOLF
 10
5.0337
 20
1.4271
 30
5.4883
 70
32
 0
VERTEX
 8
WOLF
 10
5.0371
 20
1.4824
 30
5.4883
 70
32
 0
VERTEX
 8
WOLF
 10
5.0346
 20
1.5325
 30
5.4883
 70
32
 0
VERTEX
 8
WOLF
 10
5.0272
 20
1.5781
 30
5.4883
 70
32
 0
VERTEX
 8
WOLF
 10
5.016
 20
1.62
 30
5.4883
 70
32
 0
VERTEX
 8
WOLF
 10
4.9978
 20
1.6684
 30
5.4883
 70
32
 0
VERTEX
 8
WOLF
 10
4.9083
 20
1.8641
 30
5.4883
 70
32
 0
VERTEX
 8
WOLF
 10
4.9004
 20
1.893
 30
5.4883
 70
32
 0
VERTEX
 8
WOLF
 10
4.8935
 20
1.934
 30
5.4883
 70
32
 0
VERTEX
 8
WOLF
 10
4.8908
 20
1.9783
 30
5.4883
 70
32
 0
VERTEX
 8
WOLF
 10
4.8932
 20
2.0501
 30
5.4883
 70
32
 0
VERTEX
 8
WOLF
 10
4.9029
 20
2.2243
 30
5.4883
 70
32
 0
VERTEX
 8
WOLF
 10
4.9006
 20
2.2671
 30
5.4883
 70
32
 0
VERTEX
 8
WOLF
 10
4.8935
 20
2.3223
 30
5.4883
 70
32
 0
VERTEX
 8
WOLF
 10
4.7346
 20
2.4763
 30
5.4883
 70
32
 0
VERTEX
 8
WOLF
 10
4.7025
 20
2.5184
 30
5.4883
 70
32
 0
VERTEX
 8
WOLF
 10
4.6863
 20
2.5448
 30
5.4883
 70
32
 0
VERTEX
 8
WOLF
 10
4.6731
 20
2.5721
 30
5.4883
 70
32
 0
VERTEX
 8
WOLF
 10
4.6632
 20
2.6003
 30
5.4883
 70
32
 0
VERTEX
 8
WOLF
 10
4.6588
 20
2.6196
 30
5.4883
 70
32
 0
VERTEX
 8
WOLF
 10
4.6563
 20
2.6392
 30
5.4883
 70
32
 0
VERTEX
 8
WOLF
 10
4.6559
 20
2.6592
 30
5.4883
 70
32
 0
VERTEX
 8
WOLF
 10
4.6577
 20
2.6796
 30
5.4883
 70
32
 0
VERTEX
 8
WOLF
 10
4.6618
 20
2.7004
 30
5.4883
 70
32
 0
VERTEX
 8
WOLF
 10
4.6685
 20
2.7215
 30
5.4883
 70
32
 0
VERTEX
 8
WOLF
 10
4.6778
 20
2.743
 30
5.4883
 70
32
 0
VERTEX
 8
WOLF
 10
4.6896
 20
2.7399
 30
5.4883
 70
32
 0
VERTEX
 8
WOLF
 10
4.7007
 20
2.7352
 30
5.4883
 70
32
 0
VERTEX
 8
WOLF
 10
4.7112
 20
2.729
 30
5.4883
 70
32
 0
VERTEX
 8
WOLF
 10
4.7212
 20
2.7216
 30
5.4883
 70
32
 0
VERTEX
 8
WOLF
 10
4.7353
 20
2.7085
 30
5.4883
 70
32
 0
VERTEX
 8
WOLF
 10
4.7484
 20
2.6933
 30
5.4883
 70
32
 0
VERTEX
 8
WOLF
 10
4.7683
 20
2.6648
 30
5.4883
 70
32
 0
VERTEX
 8
WOLF
 10
4.8316
 20
2.5598
 30
5.4883
 70
32
 0
VERTEX
 8
WOLF
 10
4.8379
 20
2.5525
 30
5.4883
 70
32
 0
VERTEX
 8
WOLF
 10
4.8444
 20
2.5464
 30
5.4883
 70
32
 0
VERTEX
 8
WOLF
 10
4.851
 20
2.5418
 30
5.4883
 70
32
 0
VERTEX
 8
WOLF
 10
4.8544
 20
2.54
 30
5.4883
 70
32
 0
VERTEX
 8
WOLF
 10
4.8578
 20
2.5387
 30
5.4883
 70
32
 0
VERTEX
 8
WOLF
 10
4.8612
 20
2.5379
 30
5.4883
 70
32
 0
VERTEX
 8
WOLF
 10
4.8647
 20
2.5374
 30
5.4883
 70
32
 0
VERTEX
 8
WOLF
 10
4.8683
 20
2.5375
 30
5.4883
 70
32
 0
VERTEX
 8
WOLF
 10
4.8719
 20
2.538
 30
5.4883
 70
32
 0
VERTEX
 8
WOLF
 10
4.8701
 20
2.5384
 30
5.4883
 70
32
 0
VERTEX
 8
WOLF
 10
4.8685
 20
2.5389
 30
5.4883
 70
32
 0
VERTEX
 8
WOLF
 10
4.8671
 20
2.5397
 30
5.4883
 70
32
 0
VERTEX
 8
WOLF
 10
4.8659
 20
2.5406
 30
5.4883
 70
32
 0
VERTEX
 8
WOLF
 10
4.8648
 20
2.5417
 30
5.4883
 70
32
 0
VERTEX
 8
WOLF
 10
4.8639
 20
2.5429
 30
5.4883
 70
32
 0
VERTEX
 8
WOLF
 10
4.8631
 20
2.5443
 30
5.4883
 70
32
 0
VERTEX
 8
WOLF
 10
4.8624
 20
2.5458
 30
5.4883
 70
32
 0
VERTEX
 8
WOLF
 10
4.8617
 20
2.5483
 30
5.4883
 70
32
 0
VERTEX
 8
WOLF
 10
4.8612
 20
2.551
 30
5.4883
 70
32
 0
VERTEX
 8
WOLF
 10
4.8609
 20
2.5658
 30
5.4883
 70
32
 0
VERTEX
 8
WOLF
 10
4.8612
 20
2.5812
 30
5.4883
 70
32
 0
VERTEX
 8
WOLF
 10
4.8662
 20
2.5735
 30
5.4883
 70
32
 0
VERTEX
 8
WOLF
 10
4.872
 20
2.5667
 30
5.4883
 70
32
 0
VERTEX
 8
WOLF
 10
4.8784
 20
2.5607
 30
5.4883
 70
32
 0
VERTEX
 8
WOLF
 10
4.8854
 20
2.5553
 30
5.4883
 70
32
 0
VERTEX
 8
WOLF
 10
4.8955
 20
2.5491
 30
5.4883
 70
32
 0
VERTEX
 8
WOLF
 10
4.9064
 20
2.5438
 30
5.4883
 70
32
 0
VERTEX
 8
WOLF
 10
4.9524
 20
2.5293
 30
5.4883
 70
32
 0
VERTEX
 8
WOLF
 10
5.0014
 20
2.5165
 30
5.4883
 70
32
 0
VERTEX
 8
WOLF
 10
5.1091
 20
2.4887
 30
5.4883
 70
32
 0
VERTEX
 8
WOLF
 10
5.1946
 20
2.4752
 30
5.4883
 70
32
 0
VERTEX
 8
WOLF
 10
5.2762
 20
2.4702
 30
5.4883
 70
32
 0
VERTEX
 8
WOLF
 10
5.3387
 20
2.4724
 30
5.4883
 70
32
 0
VERTEX
 8
WOLF
 10
5.3989
 20
2.48
 30
5.4883
 70
32
 0
VERTEX
 8
WOLF
 10
5.4567
 20
2.4928
 30
5.4883
 70
32
 0
VERTEX
 8
WOLF
 10
5.5123
 20
2.511
 30
5.4883
 70
32
 0
VERTEX
 8
WOLF
 10
5.5655
 20
2.5344
 30
5.4883
 70
32
 0
VERTEX
 8
WOLF
 10
5.6166
 20
2.563
 30
5.4883
 70
32
 0
VERTEX
 8
WOLF
 10
5.6655
 20
2.5967
 30
5.4883
 70
32
 0
VERTEX
 8
WOLF
 10
5.7007
 20
2.6253
 30
5.4883
 70
32
 0
VERTEX
 8
WOLF
 10
5.7348
 20
2.6567
 30
5.4883
 70
32
 0
VERTEX
 8
WOLF
 10
5.7451
 20
2.6658
 30
5.4883
 70
32
 0
VERTEX
 8
WOLF
 10
5.7952
 20
2.7061
 30
5.4883
 70
32
 0
VERTEX
 8
WOLF
 10
5.8029
 20
2.7146
 30
5.4883
 70
32
 0
VERTEX
 8
WOLF
 10
5.8077
 20
2.7212
 30
5.4883
 70
32
 0
VERTEX
 8
WOLF
 10
5.8104
 20
2.7258
 30
5.4883
 70
32
 0
VERTEX
 8
WOLF
 10
5.8125
 20
2.7305
 30
5.4883
 70
32
 0
VERTEX
 8
WOLF
 10
5.814
 20
2.7353
 30
5.4883
 70
32
 0
VERTEX
 8
WOLF
 10
5.815
 20
2.7403
 30
5.4883
 70
32
 0
VERTEX
 8
WOLF
 10
5.8152
 20
2.7454
 30
5.4883
 70
32
 0
VERTEX
 8
WOLF
 10
5.8148
 20
2.7507
 30
5.4883
 70
32
 0
VERTEX
 8
WOLF
 10
5.8136
 20
2.7561
 30
5.4883
 70
32
 0
VERTEX
 8
WOLF
 10
5.8127
 20
2.7589
 30
5.4883
 70
32
 0
VERTEX
 8
WOLF
 10
5.8103
 20
2.7645
 30
5.4883
 70
32
 0
VERTEX
 8
WOLF
 10
5.6975
 20
2.7299
 30
5.4883
 70
32
 0
VERTEX
 8
WOLF
 10
5.6271
 20
2.7171
 30
5.4883
 70
32
 0
VERTEX
 8
WOLF
 10
5.5603
 20
2.7117
 30
5.4883
 70
32
 0
VERTEX
 8
WOLF
 10
5.497
 20
2.7135
 30
5.4883
 70
32
 0
VERTEX
 8
WOLF
 10
5.4368
 20
2.7217
 30
5.4883
 70
32
 0
VERTEX
 8
WOLF
 10
5.3797
 20
2.7359
 30
5.4883
 70
32
 0
VERTEX
 8
WOLF
 10
5.3254
 20
2.7557
 30
5.4883
 70
32
 0
VERTEX
 8
WOLF
 10
5.2736
 20
2.7805
 30
5.4883
 70
32
 0
VERTEX
 8
WOLF
 10
5.2005
 20
2.8258
 30
5.4883
 70
32
 0
VERTEX
 8
WOLF
 10
5.132
 20
2.8796
 30
5.4883
 70
32
 0
VERTEX
 8
WOLF
 10
5.0468
 20
2.9612
 30
5.4883
 70
32
 0
VERTEX
 8
WOLF
 10
4.8912
 20
3.1436
 30
5.4883
 70
32
 0
VERTEX
 8
WOLF
 10
4.7628
 20
3.3028
 30
5.4883
 70
32
 0
VERTEX
 8
WOLF
 10
4.6131
 20
3.4548
 30
5.4883
 70
32
 0
VERTEX
 8
WOLF
 10
4.5502
 20
3.5013
 30
5.4883
 70
32
 0
VERTEX
 8
WOLF
 10
4.4676
 20
3.5512
 30
5.4883
 70
32
 0
VERTEX
 8
WOLF
 10
4.3636
 20
3.6013
 30
5.4883
 70
32
 0
VERTEX
 8
WOLF
 10
4.1811
 20
3.669
 30
5.4883
 70
32
 0
VERTEX
 8
WOLF
 10
3.9537
 20
3.7406
 30
5.4883
 70
32
 0
VERTEX
 8
WOLF
 10
3.7071
 20
3.8323
 30
5.4883
 70
32
 0
VERTEX
 8
WOLF
 10
3.4393
 20
3.966
 30
5.4883
 70
32
 0
VERTEX
 8
WOLF
 10
3.2358
 20
4.0934
 30
5.4883
 70
32
 0
VERTEX
 8
WOLF
 10
3.09
 20
4.2056
 30
5.4883
 70
32
 0
VERTEX
 8
WOLF
 10
2.9755
 20
4.3121
 30
5.4883
 70
32
 0
VERTEX
 8
WOLF
 10
2.872
 20
4.4291
 30
5.4883
 70
32
 0
VERTEX
 8
WOLF
 10
2.795
 20
4.5352
 30
5.4883
 70
32
 0
VERTEX
 8
WOLF
 10
2.7532
 20
4.6028
 30
5.4883
 70
32
 0
VERTEX
 8
WOLF
 10
2.7148
 20
4.6736
 30
5.4883
 70
32
 0
VERTEX
 8
WOLF
 10
2.7299
 20
4.6727
 30
5.4883
 70
32
 0
VERTEX
 8
WOLF
 10
2.7436
 20
4.6733
 30
5.4883
 70
32
 0
VERTEX
 8
WOLF
 10
2.7561
 20
4.675
 30
5.4883
 70
32
 0
VERTEX
 8
WOLF
 10
2.7694
 20
4.6783
 30
5.4883
 70
32
 0
VERTEX
 8
WOLF
 10
2.7903
 20
4.6859
 30
5.4883
 70
32
 0
VERTEX
 8
WOLF
 10
2.8119
 20
4.6952
 30
5.4883
 70
32
 0
VERTEX
 8
WOLF
 10
2.8111
 20
4.7009
 30
5.4883
 70
32
 0
VERTEX
 8
WOLF
 10
2.8095
 20
4.7066
 30
5.4883
 70
32
 0
VERTEX
 8
WOLF
 10
2.8071
 20
4.7123
 30
5.4883
 70
32
 0
VERTEX
 8
WOLF
 10
2.8041
 20
4.7181
 30
5.4883
 70
32
 0
VERTEX
 8
WOLF
 10
2.7982
 20
4.7268
 30
5.4883
 70
32
 0
VERTEX
 8
WOLF
 10
2.7885
 20
4.7383
 30
5.4883
 70
32
 0
VERTEX
 8
WOLF
 10
2.7316
 20
4.7868
 30
5.4883
 70
32
 0
VERTEX
 8
WOLF
 10
2.6717
 20
4.8354
 30
5.4883
 70
32
 0
VERTEX
 8
WOLF
 10
2.6667
 20
4.8778
 30
5.4883
 70
32
 0
VERTEX
 8
WOLF
 10
2.6575
 20
4.9172
 30
5.4883
 70
32
 0
VERTEX
 8
WOLF
 10
2.6446
 20
4.954
 30
5.4883
 70
32
 0
VERTEX
 8
WOLF
 10
2.6283
 20
4.9885
 30
5.4883
 70
32
 0
VERTEX
 8
WOLF
 10
2.6022
 20
5.0315
 30
5.4883
 70
32
 0
VERTEX
 8
WOLF
 10
2.564
 20
5.0815
 30
5.4883
 70
32
 0
VERTEX
 8
WOLF
 10
2.3597
 20
5.3091
 30
5.4883
 70
32
 0
VERTEX
 8
WOLF
 10
2.3456
 20
5.3304
 30
5.4883
 70
32
 0
VERTEX
 8
WOLF
 10
2.3265
 20
5.3639
 30
5.4883
 70
32
 0
VERTEX
 8
WOLF
 10
2.3159
 20
5.3874
 30
5.4883
 70
32
 0
VERTEX
 8
WOLF
 10
2.2648
 20
5.5234
 30
5.4883
 70
32
 0
VERTEX
 8
WOLF
 10
2.2543
 20
5.5415
 30
5.4883
 70
32
 0
VERTEX
 8
WOLF
 10
2.2457
 20
5.5532
 30
5.4883
 70
32
 0
VERTEX
 8
WOLF
 10
2.2394
 20
5.5601
 30
5.4883
 70
32
 0
VERTEX
 8
WOLF
 10
2.2328
 20
5.566
 30
5.4883
 70
32
 0
VERTEX
 8
WOLF
 10
2.2257
 20
5.571
 30
5.4883
 70
32
 0
VERTEX
 8
WOLF
 10
2.2182
 20
5.5749
 30
5.4883
 70
32
 0
VERTEX
 8
WOLF
 10
2.2102
 20
5.5777
 30
5.4883
 70
32
 0
VERTEX
 8
WOLF
 10
2.2059
 20
5.5786
 30
5.4883
 70
32
 0
VERTEX
 8
WOLF
 10
2.1971
 20
5.5796
 30
5.4883
 70
32
 0
VERTEX
 8
WOLF
 10
2.1883
 20
5.5793
 30
5.4883
 70
32
 0
VERTEX
 8
WOLF
 10
2.1801
 20
5.5779
 30
5.4883
 70
32
 0
VERTEX
 8
WOLF
 10
2.1723
 20
5.5753
 30
5.4883
 70
32
 0
VERTEX
 8
WOLF
 10
2.165
 20
5.5719
 30
5.4883
 70
32
 0
VERTEX
 8
WOLF
 10
2.1582
 20
5.5675
 30
5.4883
 70
32
 0
VERTEX
 8
WOLF
 10
2.1518
 20
5.5622
 30
5.4883
 70
32
 0
VERTEX
 8
WOLF
 10
2.1459
 20
5.5562
 30
5.4883
 70
32
 0
VERTEX
 8
WOLF
 10
2.1377
 20
5.546
 30
5.4883
 70
32
 0
VERTEX
 8
WOLF
 10
2.1303
 20
5.5345
 30
5.4883
 70
32
 0
VERTEX
 8
WOLF
 10
2.1217
 20
5.5177
 30
5.4883
 70
32
 0
VERTEX
 8
WOLF
 10
2.1111
 20
5.4904
 30
5.4883
 70
32
 0
VERTEX
 8
WOLF
 10
2.0982
 20
5.4447
 30
5.4883
 70
32
 0
VERTEX
 8
WOLF
 10
2.0893
 20
5.407
 30
5.4883
 70
32
 0
VERTEX
 8
WOLF
 10
2.0642
 20
5.4088
 30
5.4883
 70
32
 0
VERTEX
 8
WOLF
 10
2.049
 20
5.4084
 30
5.4883
 70
32
 0
VERTEX
 8
WOLF
 10
2.0374
 20
5.4071
 30
5.4883
 70
32
 0
VERTEX
 8
WOLF
 10
2.0288
 20
5.4053
 30
5.4883
 70
32
 0
VERTEX
 8
WOLF
 10
2.021
 20
5.4028
 30
5.4883
 70
32
 0
VERTEX
 8
WOLF
 10
2.0156
 20
5.4004
 30
5.4883
 70
32
 0
VERTEX
 8
WOLF
 10
2.0106
 20
5.3976
 30
5.4883
 70
32
 0
VERTEX
 8
WOLF
 10
2.0061
 20
5.3944
 30
5.4883
 70
32
 0
VERTEX
 8
WOLF
 10
2.0021
 20
5.3907
 30
5.4883
 70
32
 0
VERTEX
 8
WOLF
 10
1.9985
 20
5.3865
 30
5.4883
 70
32
 0
VERTEX
 8
WOLF
 10
1.9954
 20
5.3818
 30
5.4883
 70
32
 0
VERTEX
 8
WOLF
 10
1.9937
 20
5.3783
 30
5.4883
 70
32
 0
VERTEX
 8
WOLF
 10
1.9922
 20
5.3747
 30
5.4883
 70
32
 0
VERTEX
 8
WOLF
 10
2.0062
 20
5.3402
 30
5.4883
 70
32
 0
VERTEX
 8
WOLF
 10
2.0169
 20
5.3034
 30
5.4883
 70
32
 0
VERTEX
 8
WOLF
 10
2.0264
 20
5.251
 30
5.4883
 70
32
 0
VERTEX
 8
WOLF
 10
2.032
 20
5.1816
 30
5.4883
 70
32
 0
VERTEX
 8
WOLF
 10
2.0304
 20
5.0652
 30
5.4883
 70
32
 0
VERTEX
 8
WOLF
 10
2.0159
 20
4.8774
 30
5.4883
 70
32
 0
VERTEX
 8
WOLF
 10
2.0138
 20
4.706
 30
5.4883
 70
32
 0
VERTEX
 8
WOLF
 10
2.0094
 20
4.705
 30
5.4883
 70
32
 0
VERTEX
 8
WOLF
 10
2.005
 20
4.7044
 30
5.4883
 70
32
 0
VERTEX
 8
WOLF
 10
2.0006
 20
4.7043
 30
5.4883
 70
32
 0
VERTEX
 8
WOLF
 10
1.9941
 20
4.7048
 30
5.4883
 70
32
 0
VERTEX
 8
WOLF
 10
1.9855
 20
4.7065
 30
5.4883
 70
32
 0
VERTEX
 8
WOLF
 10
1.9685
 20
4.7117
 30
5.4883
 70
32
 0
VERTEX
 8
WOLF
 10
1.9505
 20
4.7172
 30
5.4883
 70
32
 0
VERTEX
 8
WOLF
 10
1.9448
 20
4.7183
 30
5.4883
 70
32
 0
VERTEX
 8
WOLF
 10
1.9411
 20
4.7186
 30
5.4883
 70
32
 0
VERTEX
 8
WOLF
 10
1.9375
 20
4.7185
 30
5.4883
 70
32
 0
VERTEX
 8
WOLF
 10
1.934
 20
4.718
 30
5.4883
 70
32
 0
VERTEX
 8
WOLF
 10
1.9306
 20
4.7171
 30
5.4883
 70
32
 0
VERTEX
 8
WOLF
 10
1.9273
 20
4.7157
 30
5.4883
 70
32
 0
VERTEX
 8
WOLF
 10
1.9241
 20
4.7137
 30
5.4883
 70
32
 0
VERTEX
 8
WOLF
 10
1.921
 20
4.7111
 30
5.4883
 70
32
 0
VERTEX
 8
WOLF
 10
1.9196
 20
4.7096
 30
5.4883
 70
32
 0
VERTEX
 8
WOLF
 10
1.9167
 20
4.706
 30
5.4883
 70
32
 0
VERTEX
 8
WOLF
 10
1.9602
 20
4.677
 30
5.4883
 70
32
 0
VERTEX
 8
WOLF
 10
1.9698
 20
4.6684
 30
5.4883
 70
32
 0
VERTEX
 8
WOLF
 10
1.9756
 20
4.6622
 30
5.4883
 70
32
 0
VERTEX
 8
WOLF
 10
1.9808
 20
4.6553
 30
5.4883
 70
32
 0
VERTEX
 8
WOLF
 10
1.9854
 20
4.6478
 30
5.4883
 70
32
 0
VERTEX
 8
WOLF
 10
1.9892
 20
4.6395
 30
5.4883
 70
32
 0
VERTEX
 8
WOLF
 10
1.9922
 20
4.6304
 30
5.4883
 70
32
 0
VERTEX
 8
WOLF
 10
1.9703
 20
4.6213
 30
5.4883
 70
32
 0
VERTEX
 8
WOLF
 10
1.9626
 20
4.6171
 30
5.4883
 70
32
 0
VERTEX
 8
WOLF
 10
1.9568
 20
4.613
 30
5.4883
 70
32
 0
VERTEX
 8
WOLF
 10
1.9539
 20
4.6104
 30
5.4883
 70
32
 0
VERTEX
 8
WOLF
 10
1.9518
 20
4.6078
 30
5.4883
 70
32
 0
VERTEX
 8
WOLF
 10
1.951
 20
4.6065
 30
5.4883
 70
32
 0
VERTEX
 8
WOLF
 10
1.9503
 20
4.6051
 30
5.4883
 70
32
 0
VERTEX
 8
WOLF
 10
1.9498
 20
4.6038
 30
5.4883
 70
32
 0
VERTEX
 8
WOLF
 10
1.9495
 20
4.6025
 30
5.4883
 70
32
 0
VERTEX
 8
WOLF
 10
1.9493
 20
4.6011
 30
5.4883
 70
32
 0
VERTEX
 8
WOLF
 10
1.9493
 20
4.5998
 30
5.4883
 70
32
 0
VERTEX
 8
WOLF
 10
1.9494
 20
4.5984
 30
5.4883
 70
32
 0
VERTEX
 8
WOLF
 10
1.9499
 20
4.5956
 30
5.4883
 70
32
 0
VERTEX
 8
WOLF
 10
1.951
 20
4.5926
 30
5.4883
 70
32
 0
VERTEX
 8
WOLF
 10
1.9525
 20
4.5896
 30
5.4883
 70
32
 0
VERTEX
 8
WOLF
 10
1.9565
 20
4.583
 30
5.4883
 70
32
 0
VERTEX
 8
WOLF
 10
1.9675
 20
4.5673
 30
5.4883
 70
32
 0
VERTEX
 8
WOLF
 10
1.9814
 20
4.5442
 30
5.4883
 70
32
 0
VERTEX
 8
WOLF
 10
1.9557
 20
4.4121
 30
5.4883
 70
32
 0
VERTEX
 8
WOLF
 10
1.9419
 20
4.2741
 30
5.4883
 70
32
 0
VERTEX
 8
WOLF
 10
1.9412
 20
4.1295
 30
5.4883
 70
32
 0
VERTEX
 8
WOLF
 10
1.9476
 20
4.0351
 30
5.4883
 70
32
 0
VERTEX
 8
WOLF
 10
1.9598
 20
3.9294
 30
5.4883
 70
32
 0
VERTEX
 8
WOLF
 10
1.9788
 20
3.8263
 30
5.4883
 70
32
 0
VERTEX
 8
WOLF
 10
2.0145
 20
3.701
 30
5.4883
 70
32
 0
VERTEX
 8
WOLF
 10
2.1544
 20
3.2882
 30
5.4883
 70
32
 0
VERTEX
 8
WOLF
 10
2.167
 20
3.2225
 30
5.4883
 70
32
 0
VERTEX
 8
WOLF
 10
2.1755
 20
3.1528
 30
5.4883
 70
32
 0
VERTEX
 8
WOLF
 10
2.188
 20
3.2309
 30
5.4883
 70
32
 0
VERTEX
 8
WOLF
 10
2.1939
 20
3.2509
 30
5.4883
 70
32
 0
VERTEX
 8
WOLF
 10
2.1989
 20
3.2632
 30
5.4883
 70
32
 0
VERTEX
 8
WOLF
 10
2.2034
 20
3.2716
 30
5.4883
 70
32
 0
VERTEX
 8
WOLF
 10
2.2085
 20
3.2794
 30
5.4883
 70
32
 0
VERTEX
 8
WOLF
 10
2.2144
 20
3.2865
 30
5.4883
 70
32
 0
VERTEX
 8
WOLF
 10
2.2211
 20
3.2928
 30
5.4883
 70
32
 0
VERTEX
 8
WOLF
 10
2.226
 20
3.2964
 30
5.4883
 70
32
 0
VERTEX
 8
WOLF
 10
2.2314
 20
3.2997
 30
5.4883
 70
32
 0
VERTEX
 8
WOLF
 10
2.2342
 20
3.3012
 30
5.4883
 70
32
 0
VERTEX
 8
WOLF
 10
2.2403
 20
3.3038
 30
5.4883
 70
32
 0
VERTEX
 8
WOLF
 10
2.2427
 20
3.2994
 30
5.4883
 70
32
 0
VERTEX
 8
WOLF
 10
2.2448
 20
3.2945
 30
5.4883
 70
32
 0
VERTEX
 8
WOLF
 10
2.2472
 20
3.2866
 30
5.4883
 70
32
 0
VERTEX
 8
WOLF
 10
2.2488
 20
3.2779
 30
5.4883
 70
32
 0
VERTEX
 8
WOLF
 10
2.2503
 20
3.2621
 30
5.4883
 70
32
 0
VERTEX
 8
WOLF
 10
2.2521
 20
3.1811
 30
5.4883
 70
32
 0
VERTEX
 8
WOLF
 10
2.2544
 20
3.1695
 30
5.4883
 70
32
 0
VERTEX
 8
WOLF
 10
2.257
 20
3.1618
 30
5.4883
 70
32
 0
VERTEX
 8
WOLF
 10
2.2592
 20
3.1571
 30
5.4883
 70
32
 0
VERTEX
 8
WOLF
 10
2.2618
 20
3.1528
 30
5.4883
 70
32
 0
VERTEX
 8
WOLF
 10
2.2633
 20
3.1519
 30
5.4883
 70
32
 0
VERTEX
 8
WOLF
 10
2.2647
 20
3.1513
 30
5.4883
 70
32
 0
VERTEX
 8
WOLF
 10
2.2661
 20
3.1509
 30
5.4883
 70
32
 0
VERTEX
 8
WOLF
 10
2.2676
 20
3.1508
 30
5.4883
 70
32
 0
VERTEX
 8
WOLF
 10
2.2689
 20
3.1509
 30
5.4883
 70
32
 0
VERTEX
 8
WOLF
 10
2.2703
 20
3.1513
 30
5.4883
 70
32
 0
VERTEX
 8
WOLF
 10
2.2717
 20
3.1519
 30
5.4883
 70
32
 0
VERTEX
 8
WOLF
 10
2.2731
 20
3.1527
 30
5.4883
 70
32
 0
VERTEX
 8
WOLF
 10
2.2745
 20
3.1537
 30
5.4883
 70
32
 0
VERTEX
 8
WOLF
 10
2.2772
 20
3.1563
 30
5.4883
 70
32
 0
VERTEX
 8
WOLF
 10
2.2814
 20
3.1612
 30
5.4883
 70
32
 0
VERTEX
 8
WOLF
 10
2.3051
 20
3.1938
 30
5.4883
 70
32
 0
VERTEX
 8
WOLF
 10
2.3109
 20
3.1994
 30
5.4883
 70
32
 0
VERTEX
 8
WOLF
 10
2.3151
 20
3.2025
 30
5.4883
 70
32
 0
VERTEX
 8
WOLF
 10
2.3195
 20
3.205
 30
5.4883
 70
32
 0
VERTEX
 8
WOLF
 10
2.3242
 20
3.2068
 30
5.4883
 70
32
 0
VERTEX
 8
WOLF
 10
2.3266
 20
3.2073
 30
5.4883
 70
32
 0
VERTEX
 8
WOLF
 10
2.3291
 20
3.2077
 30
5.4883
 70
32
 0
VERTEX
 8
WOLF
 10
2.3317
 20
3.2078
 30
5.4883
 70
32
 0
VERTEX
 8
WOLF
 10
2.3344
 20
3.2077
 30
5.4883
 70
32
 0
VERTEX
 8
WOLF
 10
2.3371
 20
3.2073
 30
5.4883
 70
32
 0
VERTEX
 8
WOLF
 10
2.34
 20
3.2066
 30
5.4883
 70
32
 0
VERTEX
 8
WOLF
 10
2.3459
 20
3.2043
 30
5.4883
 70
32
 0
VERTEX
 8
WOLF
 10
2.3522
 20
3.2008
 30
5.4883
 70
32
 0
VERTEX
 8
WOLF
 10
2.3589
 20
3.196
 30
5.4883
 70
32
 0
VERTEX
 8
WOLF
 10
2.3518
 20
3.1674
 30
5.4883
 70
32
 0
VERTEX
 8
WOLF
 10
2.3481
 20
3.1405
 30
5.4883
 70
32
 0
VERTEX
 8
WOLF
 10
2.3476
 20
3.1153
 30
5.4883
 70
32
 0
VERTEX
 8
WOLF
 10
2.3499
 20
3.0915
 30
5.4883
 70
32
 0
VERTEX
 8
WOLF
 10
2.3546
 20
3.069
 30
5.4883
 70
32
 0
VERTEX
 8
WOLF
 10
2.3614
 20
3.0478
 30
5.4883
 70
32
 0
VERTEX
 8
WOLF
 10
2.3732
 20
3.0211
 30
5.4883
 70
32
 0
VERTEX
 8
WOLF
 10
2.3912
 20
2.99
 30
5.4883
 70
32
 0
VERTEX
 8
WOLF
 10
2.4362
 20
2.9273
 30
5.4883
 70
32
 0
VERTEX
 8
WOLF
 10
2.4775
 20
2.8616
 30
5.4883
 70
32
 0
VERTEX
 8
WOLF
 10
2.4894
 20
2.8316
 30
5.4883
 70
32
 0
VERTEX
 8
WOLF
 10
2.4984
 20
2.8008
 30
5.4883
 70
32
 0
VERTEX
 8
WOLF
 10
2.5063
 20
2.7584
 30
5.4883
 70
32
 0
VERTEX
 8
WOLF
 10
2.5106
 20
2.7034
 30
5.4883
 70
32
 0
VERTEX
 8
WOLF
 10
2.5092
 20
2.6226
 30
5.4883
 70
32
 0
VERTEX
 8
WOLF
 10
2.4939
 20
2.4482
 30
5.4883
 70
32
 0
VERTEX
 8
WOLF
 10
2.4883
 20
2.2576
 30
5.4883
 70
32
 0
VERTEX
 8
WOLF
 10
2.4096
 20
2.2754
 30
5.4883
 70
32
 0
VERTEX
 8
WOLF
 10
2.3378
 20
2.2829
 30
5.4883
 70
32
 0
VERTEX
 8
WOLF
 10
2.2934
 20
2.2827
 30
5.4883
 70
32
 0
VERTEX
 8
WOLF
 10
2.2515
 20
2.2789
 30
5.4883
 70
32
 0
VERTEX
 8
WOLF
 10
2.1925
 20
2.267
 30
5.4883
 70
32
 0
VERTEX
 8
WOLF
 10
2.1376
 20
2.2489
 30
5.4883
 70
32
 0
VERTEX
 8
WOLF
 10
2.0857
 20
2.2258
 30
5.4883
 70
32
 0
VERTEX
 8
WOLF
 10
2.0038
 20
2.1798
 30
5.4883
 70
32
 0
VERTEX
 8
WOLF
 10
1.8077
 20
2.062
 30
5.4883
 70
32
 0
VERTEX
 8
WOLF
 10
1.7351
 20
2.0308
 30
5.4883
 70
32
 0
VERTEX
 8
WOLF
 10
1.676
 20
2.0132
 30
5.4883
 70
32
 0
VERTEX
 8
WOLF
 10
1.6121
 20
2.0019
 30
5.4883
 70
32
 0
VERTEX
 8
WOLF
 10
1.5663
 20
1.9984
 30
5.4883
 70
32
 0
VERTEX
 8
WOLF
 10
1.5176
 20
1.9988
 30
5.4883
 70
32
 0
VERTEX
 8
WOLF
 10
1.3067
 20
1.8386
 30
5.4883
 70
32
 0
VERTEX
 8
WOLF
 10
1.2684
 20
1.7978
 30
5.4883
 70
32
 0
VERTEX
 8
WOLF
 10
1.2419
 20
1.7624
 30
5.4883
 70
32
 0
VERTEX
 8
WOLF
 10
1.2251
 20
1.7339
 30
5.4883
 70
32
 0
VERTEX
 8
WOLF
 10
1.2115
 20
1.7036
 30
5.4883
 70
32
 0
VERTEX
 8
WOLF
 10
1.2014
 20
1.6716
 30
5.4883
 70
32
 0
VERTEX
 8
WOLF
 10
1.1953
 20
1.6375
 30
5.4883
 70
32
 0
VERTEX
 8
WOLF
 10
1.1936
 20
1.6137
 30
5.4883
 70
32
 0
VERTEX
 8
WOLF
 10
1.194
 20
1.5889
 30
5.4883
 70
32
 0
VERTEX
 8
WOLF
 10
1.1953
 20
1.5776
 30
5.4883
 70
32
 0
VERTEX
 8
WOLF
 10
1.1978
 20
1.5667
 30
5.4883
 70
32
 0
VERTEX
 8
WOLF
 10
1.2012
 20
1.5563
 30
5.4883
 70
32
 0
VERTEX
 8
WOLF
 10
1.2056
 20
1.5463
 30
5.4883
 70
32
 0
VERTEX
 8
WOLF
 10
1.2136
 20
1.532
 30
5.4883
 70
32
 0
VERTEX
 8
WOLF
 10
1.2232
 20
1.5185
 30
5.4883
 70
32
 0
VERTEX
 8
WOLF
 10
1.2416
 20
1.4972
 30
5.4883
 70
32
 0
VERTEX
 8
WOLF
 10
1.3142
 20
1.4233
 30
5.4883
 70
32
 0
VERTEX
 8
WOLF
 10
1.3223
 20
1.4114
 30
5.4883
 70
32
 0
VERTEX
 8
WOLF
 10
1.3267
 20
1.4033
 30
5.4883
 70
32
 0
VERTEX
 8
WOLF
 10
1.3302
 20
1.395
 30
5.4883
 70
32
 0
VERTEX
 8
WOLF
 10
1.3327
 20
1.3865
 30
5.4883
 70
32
 0
VERTEX
 8
WOLF
 10
1.3335
 20
1.3821
 30
5.4883
 70
32
 0
VERTEX
 8
WOLF
 10
1.3343
 20
1.3732
 30
5.4883
 70
32
 0
VERTEX
 8
WOLF
 10
1.3332
 20
1.3576
 30
5.4883
 70
32
 0
VERTEX
 8
WOLF
 10
1.3298
 20
1.3429
 30
5.4883
 70
32
 0
VERTEX
 8
WOLF
 10
1.3242
 20
1.3289
 30
5.4883
 70
32
 0
VERTEX
 8
WOLF
 10
1.3165
 20
1.3156
 30
5.4883
 70
32
 0
VERTEX
 8
WOLF
 10
1.3071
 20
1.3029
 30
5.4883
 70
32
 0
VERTEX
 8
WOLF
 10
1.2901
 20
1.2848
 30
5.4883
 70
32
 0
VERTEX
 8
WOLF
 10
1.2631
 20
1.2618
 30
5.4883
 70
32
 0
VERTEX
 8
WOLF
 10
1.1237
 20
1.1583
 30
5.4883
 70
32
 0
VERTEX
 8
WOLF
 10
1.1045
 20
1.1381
 30
5.4883
 70
32
 0
VERTEX
 8
WOLF
 10
1.0933
 20
1.1239
 30
5.4883
 70
32
 0
VERTEX
 8
WOLF
 10
1.0836
 20
1.1088
 30
5.4883
 70
32
 0
VERTEX
 8
WOLF
 10
1.0757
 20
1.0928
 30
5.4883
 70
32
 0
VERTEX
 8
WOLF
 10
1.0698
 20
1.0759
 30
5.4883
 70
32
 0
VERTEX
 8
WOLF
 10
1.066
 20
1.0579
 30
5.4883
 70
32
 0
VERTEX
 8
WOLF
 10
1.0646
 20
1.0388
 30
5.4883
 70
32
 0
VERTEX
 8
WOLF
 10
1.065
 20
1.03
 30
5.4883
 70
32
 0
VERTEX
 8
WOLF
 10
1.0662
 20
1.0214
 30
5.4883
 70
32
 0
VERTEX
 8
WOLF
 10
1.0693
 20
1.0089
 30
5.4883
 70
32
 0
VERTEX
 8
WOLF
 10
1.0739
 20
0.9969
 30
5.4883
 70
32
 0
VERTEX
 8
WOLF
 10
1.0819
 20
0.9814
 30
5.4883
 70
32
 0
VERTEX
 8
WOLF
 10
1.0968
 20
0.9588
 30
5.4883
 70
32
 0
VERTEX
 8
WOLF
 10
1.1403
 20
0.8975
 30
5.4883
 70
32
 0
VERTEX
 8
WOLF
 10
1.1491
 20
0.8807
 30
5.4883
 70
32
 0
VERTEX
 8
WOLF
 10
1.1545
 20
0.8675
 30
5.4883
 70
32
 0
VERTEX
 8
WOLF
 10
1.1586
 20
0.8536
 30
5.4883
 70
32
 0
VERTEX
 8
WOLF
 10
1.1605
 20
0.8439
 30
5.4883
 70
32
 0
VERTEX
 8
WOLF
 10
1.1617
 20
0.8339
 30
5.4883
 70
32
 0
VERTEX
 8
WOLF
 10
1.162
 20
0.8211
 30
5.4883
 70
32
 0
VERTEX
 8
WOLF
 10
1.1608
 20
0.8037
 30
5.4883
 70
32
 0
VERTEX
 8
WOLF
 10
1.1572
 20
0.7818
 30
5.4883
 70
32
 0
VERTEX
 8
WOLF
 10
1.1275
 20
0.664
 30
5.4883
 70
32
 0
VERTEX
 8
WOLF
 10
1.1267
 20
0.6493
 30
5.4883
 70
32
 0
VERTEX
 8
WOLF
 10
1.1274
 20
0.6389
 30
5.4883
 70
32
 0
VERTEX
 8
WOLF
 10
1.1279
 20
0.6355
 30
5.4883
 70
32
 0
VERTEX
 8
WOLF
 10
1.1293
 20
0.629
 30
5.4883
 70
32
 0
VERTEX
 8
WOLF
 10
1.1348
 20
0.6125
 30
5.4883
 70
32
 0
VERTEX
 8
WOLF
 10
1.1417
 20
0.5968
 30
5.4883
 70
32
 0
VERTEX
 8
WOLF
 10
1.15
 20
0.5819
 30
5.4883
 70
32
 0
VERTEX
 8
WOLF
 10
1.1648
 20
0.561
 30
5.4883
 70
32
 0
VERTEX
 8
WOLF
 10
1.1821
 20
0.5415
 30
5.4883
 70
32
 0
VERTEX
 8
WOLF
 10
1.2018
 20
0.5234
 30
5.4883
 70
32
 0
VERTEX
 8
WOLF
 10
1.231
 20
0.5009
 30
5.4883
 70
32
 0
VERTEX
 8
WOLF
 10
1.3593
 20
0.4274
 30
5.4883
 70
32
 0
VERTEX
 8
WOLF
 10
1.496
 20
0.3486
 30
5.4883
 70
32
 0
VERTEX
 8
WOLF
 10
1.524
 20
0.3263
 30
5.4883
 70
32
 0
VERTEX
 8
WOLF
 10
1.5536
 20
0.2977
 30
5.4883
 70
32
 0
VERTEX
 8
WOLF
 10
1.6787
 20
0.1586
 30
5.4883
 70
32
 0
VERTEX
 8
WOLF
 10
1.699
 20
0.1427
 30
5.4883
 70
32
 0
VERTEX
 8
WOLF
 10
1.7155
 20
0.1319
 30
5.4883
 70
32
 0
VERTEX
 8
WOLF
 10
1.7333
 20
0.1221
 30
5.4883
 70
32
 0
VERTEX
 8
WOLF
 10
6.4898
 20
0.1221
 30
5.4883
 70
32
 0
VERTEX
 8
WOLF
 10
6.5071
 20
0.1296
 30
5.4883
 70
32
 0
VERTEX
 8
WOLF
 10
6.523
 20
0.1384
 30
5.4883
 70
32
 0
VERTEX
 8
WOLF
 10
6.5376
 20
0.1486
 30
5.4883
 70
32
 0
VERTEX
 8
WOLF
 10
6.551
 20
0.1601
 30
5.4883
 70
32
 0
VERTEX
 8
WOLF
 10
6.5632
 20
0.1727
 30
5.4883
 70
32
 0
VERTEX
 8
WOLF
 10
6.5763
 20
0.1894
 30
5.4883
 70
32
 0
VERTEX
 8
WOLF
 10
6.5879
 20
0.2075
 30
5.4883
 70
32
 0
VERTEX
 8
WOLF
 10
6.5981
 20
0.2271
 30
5.4883
 70
32
 0
VERTEX
 8
WOLF
 10
6.6084
 20
0.2515
 30
5.4883
 70
32
 0
VERTEX
 8
WOLF
 10
6.6084
 20
6.4317
 30
5.4883
 70
32
 0
VERTEX
 8
WOLF
 10
6.5965
 20
6.4594
 30
5.4883
 70
32
 0
VERTEX
 8
WOLF
 10
6.5842
 20
6.4818
 30
5.4883
 70
32
 0
VERTEX
 8
WOLF
 10
6.5721
 20
6.4995
 30
5.4883
 70
32
 0
VERTEX
 8
WOLF
 10
6.5608
 20
6.513
 30
5.4883
 70
32
 0
VERTEX
 8
WOLF
 10
6.5484
 20
6.5254
 30
5.4883
 70
32
 0
VERTEX
 8
WOLF
 10
6.5348
 20
6.5366
 30
5.4883
 70
32
 0
VERTEX
 8
WOLF
 10
6.5199
 20
6.5466
 30
5.4883
 70
32
 0
VERTEX
 8
WOLF
 10
6.5071
 20
6.5536
 30
5.4883
 70
32
 0
VERTEX
 8
WOLF
 10
6.4898
 20
6.5611
 30
5.4883
 70
32
 0
VERTEX
 8
WOLF
 10
0.2557
 20
6.5611
 30
5.4883
 70
32
 0
VERTEX
 8
WOLF
 10
0.2384
 20
6.5536
 30
5.4883
 70
32
 0
VERTEX
 8
WOLF
 10
0.2225
 20
6.5447
 30
5.4883
 70
32
 0
VERTEX
 8
WOLF
 10
0.2079
 20
6.5345
 30
5.4883
 70
32
 0
VERTEX
 8
WOLF
 10
0.1945
 20
6.523
 30
5.4883
 70
32
 0
VERTEX
 8
WOLF
 10
0.1823
 20
6.5104
 30
5.4883
 70
32
 0
VERTEX
 8
WOLF
 10
0.1692
 20
6.4938
 30
5.4883
 70
32
 0
VERTEX
 8
WOLF
 10
0.1576
 20
6.4756
 30
5.4883
 70
32
 0
VERTEX
 8
WOLF
 10
0.1474
 20
6.4561
 30
5.4883
 70
32
 0
VERTEX
 8
WOLF
 10
0.1371
 20
6.4317
 30
5.4883
 70
32
 0
SEQEND
 0
ENDSEC
 0
EOF
